<svg xmlns="http://www.w3.org/2000/svg" xmlns:xlink="http://www.w3.org/1999/xlink" viewBox="0 0 16 16" width="16" height="16"><path d="M4.1 5.4986999999999995C4.376133333333333 5.4986999999999995 4.6 5.722553333333334 4.6 5.9986999999999995L4.6 8.516066666666667C4.6 9.058733333333333 5.0399199999999995 9.498666666666665 5.5826 9.498666666666665C6.125273333333333 9.498666666666665 6.565199999999999 9.058733333333333 6.565199999999999 8.516066666666667L6.565199999999999 5.9986999999999995C6.565199999999999 5.722553333333334 6.789066666666667 5.4986999999999995 7.065199999999999 5.4986999999999995C7.341333333333333 5.4986999999999995 7.565199999999999 5.722553333333334 7.565199999999999 5.9986999999999995L7.565199999999999 8.516066666666667C7.565199999999999 9.611033333333333 6.6775666666666655 10.498666666666665 5.5826 10.498666666666665C4.48764 10.498666666666665 3.6 9.611033333333333 3.6 8.516066666666667L3.6 5.9986999999999995C3.6 5.722553333333334 3.823853333333333 5.4986999999999995 4.1 5.4986999999999995z" fill="currentColor"></path><path d="M8.4348 5.9986999999999995C8.4348 5.722553333333334 8.658633333333333 5.4986999999999995 8.9348 5.4986999999999995L10.483333333333333 5.4986999999999995C11.5419 5.4986999999999995 12.4 6.356813333333333 12.4 7.415333333333333C12.4 8.4739 11.5419 9.331999999999999 10.483333333333333 9.331999999999999L9.4348 9.331999999999999L9.4348 9.998666666666665C9.4348 10.274799999999999 9.210933333333333 10.498666666666665 8.9348 10.498666666666665C8.658633333333333 10.498666666666665 8.4348 10.274799999999999 8.4348 9.998666666666665L8.4348 5.9986999999999995zM9.4348 8.331999999999999L10.483333333333333 8.331999999999999C10.9896 8.331999999999999 11.4 7.9216 11.4 7.415333333333333C11.4 6.9091 10.9896 6.498693333333333 10.483333333333333 6.498693333333333L9.4348 6.498693333333333L9.4348 8.331999999999999z" fill="currentColor"></path><path d="M8 3.3320333333333334C6.321186666666667 3.3320333333333334 4.855333333333333 3.4174399999999996 3.820593333333333 3.5013466666666666C3.1014733333333333 3.5596599999999996 2.5440733333333334 4.109013333333333 2.48 4.821693333333333C2.4040466666666664 5.666533333333334 2.333333333333333 6.780666666666666 2.333333333333333 7.998666666666666C2.333333333333333 9.216733333333334 2.4040466666666664 10.330866666666665 2.48 11.175699999999999C2.5440733333333334 11.888366666666666 3.1014733333333333 12.437733333333334 3.820593333333333 12.496066666666666C4.855333333333333 12.579933333333333 6.321186666666667 12.665333333333333 8 12.665333333333333C9.678999999999998 12.665333333333333 11.144933333333334 12.579933333333333 12.179733333333333 12.496033333333333C12.898733333333332 12.4377 13.456 11.888533333333331 13.520066666666667 11.176033333333333C13.595999999999998 10.331533333333333 13.666666666666666 9.217633333333332 13.666666666666666 7.998666666666666C13.666666666666666 6.779766666666667 13.595999999999998 5.665846666666667 13.520066666666667 4.821366666666666C13.456 4.108866666666666 12.898733333333332 3.55968 12.179733333333333 3.5013666666666663C11.144933333333334 3.417453333333333 9.678999999999998 3.3320333333333334 8 3.3320333333333334zM3.7397666666666667 2.50462C4.794879999999999 2.41906 6.288386666666666 2.3320333333333334 8 2.3320333333333334C9.7118 2.3320333333333334 11.2054 2.4190733333333334 12.260533333333331 2.5046399999999998C13.458733333333331 2.6018133333333333 14.407866666666665 3.5285199999999994 14.516066666666667 4.73182C14.593933333333332 5.597933333333334 14.666666666666666 6.7427 14.666666666666666 7.998666666666666C14.666666666666666 9.2547 14.593933333333332 10.399466666666665 14.516066666666667 11.2656C14.407866666666665 12.468866666666665 13.458733333333331 13.395566666666667 12.260533333333331 13.492766666666665C11.2054 13.578333333333333 9.7118 13.665333333333333 8 13.665333333333333C6.288386666666666 13.665333333333333 4.794879999999999 13.578333333333333 3.7397666666666667 13.492799999999999C2.541373333333333 13.395599999999998 1.5922066666666668 12.468633333333333 1.4840200000000001 11.265266666666665C1.4061199999999998 10.3988 1.3333333333333333 9.253866666666667 1.3333333333333333 7.998666666666666C1.3333333333333333 6.743533333333333 1.4061199999999998 5.598579999999999 1.4840200000000001 4.732153333333333C1.5922066666666668 3.5287466666666667 2.541373333333333 2.601793333333333 3.7397666666666667 2.50462z" fill="currentColor"></path></svg>